<svg xmlns="http://www.w3.org/2000/svg" xmlns:xlink="http://www.w3.org/1999/xlink" xmlns:svgjs="http://svgjs.com/svgjs" id="SvgjsSvg246909" width="4096" height="1200.7025802424407"><defs id="SvgjsDefs246910"/><g id="SvgjsG246911" transform="translate(328, 328) scale(34.4)" opacity="1"><defs id="SvgjsDefs104859"><linearGradient id="SvgjsLinearGradientkN-7P7kf3j" gradientUnits="userSpaceOnUse" x1="42632564145606005e-30" y1="99.99999999999997" x2="99.99999999999999" y2="-35527136788005e-28"><stop id="SvgjsStop104862" stop-color="#ff383f" offset=".05"/><stop id="SvgjsStop104863" stop-color="#b80006" offset=".95"/></linearGradient></defs><g id="SvgjsG104860" transform="scale(0.13641105780773244)" opacity="1"><g id="SvgjsG104864" class="tuU6ASfYui" transform="translate(-7.105427357601002e-15, -7.105427357601002e-15) scale(1.1607840000000003)" fill="url(#SvgjsLinearGradientkN-7P7kf3j)"><path d="M24 0h76v76c0 13.255-10.745 24-24 24H0V24C0 10.745 10.745.0 24 0z"/></g><g id="SvgjsG104865" class="-GfK7Oscp1B" transform="translate(13.800011345978271, 13.811068378883547) scale(0.8845626324223291)" fill="#fff"><path d="M93 46.9 74.7 28.6c-.8-.8-1.9-1.3-3.1-1.3-1.2.0-2.3.5-3.1 1.3l-7.7 7.7-7.7-7.7c-.8-.8-1.9-1.3-3.1-1.3s-2.3.5-3.1 1.3l-7.7 7.7-7.7-7.7c-.8-.8-1.9-1.3-3.1-1.3s-2.3.5-3.1 1.3L7 46.9c-1.7 1.7-1.7 4.5.0 6.2l18.3 18.3c.8.8 1.9 1.3 3.1 1.3s2.3-.5 3.1-1.3l7.7-7.7 7.7 7.7c.8.8 1.9 1.3 3.1 1.3s2.3-.5 3.1-1.3l7.7-7.7 7.7 7.7c.8.8 1.9 1.3 3.1 1.3 1.2.0 2.3-.5 3.1-1.3L93 53.1c.8-.8 1.3-1.9 1.3-3.1s-.5-2.3-1.3-3.1zM60.8 60.8l-9.1-9.1c-.4-.4-.7-1-.7-1.7s.2-1.2.7-1.7l9.1-9.1 9.1 9.1c.9.9.9 2.4.0 3.3l-9.1 9.2zM48.3 48.3c.4.4.7 1 .7 1.7s-.2 1.2-.7 1.7l-9.1 9.1-9.2-9.1c-.9-.9-.9-2.4.0-3.3l9.1-9.1 9.2 9z"/></g><g id="SvgjsG104866" class="text" transform="translate(442.97839999999997, 59.574200000000005) scale(1)" fill="#3b3b3b"><path d="M-288.9-41.94V0h14.22V-14.7h11.52V0h14.22V-41.94h-14.22V-27.9h-11.52V-41.94zm44.16.0V0h31.08V-11.94h-16.86V-15.6h11.94V-26.34h-11.94V-30h16.86V-41.94zm46.56 25.92V0h14.22V-16.02l15.78-25.92H-183.3L-191.04-28.68-198.18-41.94h-15.18zm33-25.92V0h16.08C-141.9.0-136.23-1.79-132.09-5.37-127.95-8.95-125.88-14.22-125.88-21.18-125.88-25.42-126.84-29.1-128.76-32.22-130.68-35.34-133.39-37.74-136.89-39.42S-144.46-41.94-149.1-41.94zm17.04 28.74H-150.96V-28.74H-148.14C-145.66-28.74-143.74-28.09-142.38-26.79-141.02-25.49-140.34-23.62-140.34-21.18-140.34-15.86-142.94-13.2-148.14-13.2zm36.96-28.74L-127.98.0h14.58l2.7-7.32h12.48L-95.52.0h14.58l-16.8-41.94zm9.84 24.18h-6.24l3.12-9.66zm28.98 1.74V0h14.22V-16.02l15.78-25.92H-57.48l-7.74 13.26-7.14-13.26H-87.54zm49.8-25.92L-5.76.0H7.68l16.8-41.94H9.6L.96-18.42-7.68-41.94zm50.04.0V0H58.56V-11.94H41.7V-15.6H53.64V-26.34H41.7V-30H58.56V-41.94zm34.08.0V0H75.18V-19.56L87.66.0H100.2V-41.94H86.58v19.5L74.1-41.94zM113.04-30V0h14.22V-30H138V-41.94H102.3V-30zM148.68-1.68C151.72.04 155.5.9 160.02.9 164.54.9 168.32.04 171.36-1.68 174.4-3.4 176.64-5.74 178.08-8.7c1.44-2.96 2.16-6.36 2.16-10.2V-41.94H165.96v22.62C165.96-16.96 165.49-15.18 164.55-13.98 163.61-12.78 162.1-12.18 160.02-12.18 157.94-12.18 156.42-12.78 155.46-13.98 154.5-15.18 154.02-16.96 154.02-19.32V-41.94H139.8V-18.9C139.8-15.06 140.52-11.66 141.96-8.7 143.4-5.74 145.64-3.4 148.68-1.68zm35.46-40.26V0h13.98V-11.46H200.82L206.34.0h14.34L214.08-13.62C216.36-14.86 218.12-16.57 219.36-18.75 220.6-20.93 221.22-23.58 221.22-26.7 221.22-31.66 219.7-35.44 216.66-38.04s-7.16-3.9-12.36-3.9zM201.3-22.08H198.12v-9.24H201.3C204.94-31.32 206.76-29.78 206.76-26.7 206.76-23.62 204.94-22.08 201.3-22.08zm22.92-19.86V0H255.3V-11.94H238.44V-15.6h11.94V-26.34H238.44V-30H255.3V-41.94zm39.72 42C266.74.62 269.52.9 272.28.9 278.24.9 282.7-.25 285.66-2.55 288.62-4.85 290.1-8.02 290.1-12.06 290.1-14.34 289.78-16.23 289.14-17.73S287.42-20.57 285.9-21.75C284.38-22.93 282.2-24.12 279.36-25.32L277.14-26.22C275.42-26.9 274.23-27.44 273.57-27.84 272.91-28.24 272.58-28.74 272.58-29.34 272.58-30.58 274-31.2 276.84-31.2 280.36-31.2 283.92-30.2 287.52-28.2V-40.14C285.6-41.06 283.58-41.74 281.46-42.18S276.92-42.84 274.2-42.84C270.88-42.84 267.93-42.28 265.35-41.16 262.77-40.04 260.77-38.49 259.35-36.51 257.93-34.53 257.22-32.26 257.22-29.7 257.22-26.74 258.09-24.23 259.83-22.17 261.57-20.11 264.36-18.24 268.2-16.56 270.8-15.4 272.5-14.57 273.3-14.07S274.5-12.96 274.5-12.24C274.5-11.72 274.24-11.34 273.72-11.1 273.2-10.86 272.34-10.74 271.14-10.74 269.02-10.74 266.71-11.06 264.21-11.7 261.71-12.34 259.34-13.3 257.1-14.58V-2.22C258.86-1.26 261.14-.5 263.94.06z"/></g><g id="SvgjsG104867" class="text" transform="translate(443.5934, 98.8942) scale(1)" fill="#b80006"><path d="M-251.94-.93C-250.23-.01-248.32.45-246.22.45-244.13.45-242.23-.01-240.54-.93S-237.52-3.13-236.53-4.78C-235.55-6.43-235.06-8.33-235.06-10.47c0-2.14-.490000000000009-4.04-1.47-5.7C-237.52-17.83-238.85-19.12-240.54-20.04-242.23-20.96-244.12-21.42-246.22-21.42S-250.23-20.96-251.94-20.04C-253.65-19.12-255-17.83-255.97-16.17-256.96-14.51-257.44-12.61-257.44-10.47-257.44-8.33-256.96-6.44-255.97-4.78-254.99-3.13-253.65-1.85-251.94-.93zm9-3.64C-243.93-4.03-245.02-3.75-246.22-3.75-247.44-3.75-248.55-4.02-249.55-4.57-250.56-5.12-251.35-5.9-251.92-6.91-252.5-7.92-252.79-9.11-252.79-10.47-252.79-11.81-252.5-12.98-251.92-13.99-251.35-15-250.56-15.78-249.57-16.33-248.58-16.88-247.47-17.16-246.22-17.16-245.01-17.16-243.9-16.88-242.91-16.33-241.92-15.79-241.14-15-240.57-13.99-240-12.99-239.71-11.81-239.71-10.47-239.71-9.11-240.01-7.92-240.58-6.91-241.16-5.9-241.95-5.12-242.94-4.57zm12.59 2.61C-228.79-.35-226.48.45-223.42.45-220.37.45-218.07-.35-216.52-1.96c1.53-1.61 2.31-3.78 2.31-6.5V-20.97h-4.56V-8.4C-218.77-6.88-219.19-5.72-220.02-4.92-220.85-4.12-221.98-3.72-223.42-3.72-224.88-3.72-226.03-4.12-226.87-4.92S-228.13-6.88-228.13-8.4V-20.97h-4.56V-8.46C-232.69-5.74-231.91-3.58-230.35-1.96zm19.14-19.01V0h4.56V-7.11H-203.08L-199.39.0H-194.71L-198.7-7.68C-197.38-8.18-196.36-8.97-195.64-10.06-194.92-11.16-194.56-12.48-194.56-14.04c0-2.24-.669999999999988-3.95-2-5.14C-197.89-20.38-199.74-20.97-202.12-20.97zm8.28 10.05h-3.72v-6.24h3.72C-201.75-17.16-200.83-16.93-200.17-16.45-199.51-15.98-199.18-15.18-199.18-14.04-199.18-12.96-199.52-12.17-200.19-11.67-200.86-11.17-201.78-10.92-202.93-10.92zm26.43-6.24V0h4.56V-17.16h6.12v-3.81h-16.8v3.81zm12.69-3.81V0h14.54V-3.81H-159.25V-8.64H-151.9V-12.3H-159.25v-4.86H-149.27v-3.81zM-142.69-.88C-140.97.01-138.99.45-136.75.45-133.6.45-131.1-.23-129.25-1.59V-5.91C-130.24-5.13-131.29-4.57-132.43-4.21-133.57-3.87-134.88-3.69-136.36-3.69-138.52-3.69-140.25-4.29-141.52-5.5-142.81-6.71-143.44-8.37-143.44-10.47-143.44-12.55-142.81-14.19-141.54-15.4-140.27-16.61-138.54-17.22-136.36-17.22-134.92-17.22-133.64-17.05-132.51-16.72-131.38-16.39-130.37-15.86-129.49-15.12v-4.32C-131.44-20.76-133.86-21.42-136.75-21.42-138.99-21.42-140.97-20.98-142.69-20.08-144.41-19.19-145.74-17.92-146.68-16.27-147.62-14.62-148.09-12.69-148.09-10.47-148.09-8.25-147.63-6.32-146.68-4.68-145.74-3.04-144.41-1.77-142.69-.88zm15.99-20.09V0h4.56V-8.79H-112.99V0H-108.43V-20.97H-112.99v8.4H-122.14v-8.4zm21.39.0V0h4.56V-13.56L-91.96.0h4.41V-20.97h-4.56V-7.41L-100.87-20.97zM-79.53-.93C-77.82-.01-75.91.45-73.81.45-71.72.45-69.82-.01-68.13-.93S-65.11-3.13-64.12-4.78C-63.14-6.43-62.65-8.33-62.65-10.47-62.65-12.61-63.14-14.51-64.12-16.17-65.11-17.83-66.44-19.12-68.13-20.04-69.82-20.96-71.71-21.42-73.81-21.42-75.91-21.42-77.82-20.96-79.53-20.04-81.24-19.12-82.59-17.83-83.56-16.17-84.55-14.51-85.03-12.61-85.03-10.47-85.03-8.33-84.55-6.44-83.56-4.78-82.58-3.13-81.24-1.85-79.53-.93zm9-3.64C-71.52-4.03-72.61-3.75-73.81-3.75c-1.22.0-2.33-.27-3.33-.82C-78.15-5.12-78.94-5.9-79.51-6.91-80.09-7.92-80.39-9.11-80.39-10.47-80.39-11.81-80.09-12.98-79.51-13.99-78.94-15-78.15-15.78-77.16-16.33-76.17-16.88-75.06-17.16-73.81-17.16-72.6-17.16-71.49-16.88-70.5-16.33-69.51-15.79-68.73-15-68.16-13.99-67.59-12.99-67.3-11.81-67.3-10.47-67.3-9.11-67.6-7.92-68.17-6.91-68.75-5.9-69.54-5.12-70.53-4.57zm10.4-16.4V0h14.16V-3.81h-9.6V-20.97zM-40.77-.93C-39.06-.01-37.15.45-35.05.45c2.09.0 3.99-.46 5.68-1.38 1.69-.92 3.02-2.2 4.01-3.85.98-1.65 1.46-3.55 1.46-5.69.0-2.14-.48-4.04-1.46-5.7C-26.35-17.83-27.68-19.12-29.37-20.04-31.06-20.96-32.95-21.42-35.05-21.42-37.15-21.42-39.06-20.96-40.77-20.04-42.48-19.12-43.83-17.83-44.8-16.17-45.79-14.51-46.27-12.61-46.27-10.47-46.27-8.33-45.79-6.44-44.8-4.78-43.82-3.13-42.48-1.85-40.77-.93zm9-3.64C-32.76-4.03-33.86-3.75-35.05-3.75-36.27-3.75-37.38-4.02-38.38-4.57c-1.01-.55-1.8-1.33-2.38-2.34C-41.33-7.92-41.62-9.11-41.62-10.47-41.62-11.81-41.33-12.98-40.76-13.99-40.18-15-39.39-15.78-38.4-16.33-37.41-16.88-36.3-17.16-35.05-17.16-33.84-17.16-32.73-16.88-31.74-16.33-30.75-15.79-29.97-15-29.4-13.99-28.83-12.99-28.54-11.81-28.54-10.47-28.54-9.11-28.84-7.92-29.41-6.91-29.99-5.9-30.78-5.12-31.77-4.57zm15.2 3.69c1.72.89 3.7 1.33 5.94 1.33 3.24.0 5.85-.68 7.83-2.04V-11.7h-7.8v3.36h3.39v4.05C-8.13-3.85-9.21-3.63-10.45-3.63c-1.37.0-2.57-.28-3.6-.84C-15.09-5.03-15.9-5.83-16.47-6.85-17.04-7.89-17.32-9.09-17.32-10.47-17.32-11.83-17.02-13.02-16.39-14.04-15.77-15.06-14.93-15.84-13.86-16.39S-11.59-17.22-10.24-17.22C-8.8-17.22-7.52-17.05-6.39-16.72-5.26-16.39-4.25-15.87-3.37-15.15V-19.5c-.99-.66-2.06-1.15-3.23-1.45C-7.77-21.26-9.12-21.42-10.63-21.42-12.87-21.42-14.85-20.98-16.57-20.08-18.29-19.19-19.62-17.92-20.56-16.27-21.5-14.62-21.97-12.69-21.97-10.47-21.97-8.25-21.51-6.32-20.56-4.68-19.62-3.04-18.29-1.77-16.57-.88zM5.48-7.98V0H9.95V-7.98l7.86-12.99H12.98L7.73-12.24 2.65-20.97H-2.2zM20.25-.48C20.58-.16 20.99.0 21.47.0S22.35-.16 22.7-.48C23.03-.8 23.21-1.2 23.21-1.68S23.03-2.57 22.7-2.91C22.35-3.25 21.95-3.42 21.47-3.42 21-3.42 20.6-3.25 20.27-2.91 19.93-2.57 19.76-2.16 19.76-1.68 19.76-1.2 19.92-.8 20.25-.48zm23.06-7.5V0h4.47V-7.98l7.86-12.99H50.81l-5.25 8.73-5.07-8.73H35.63zM60.54-.93C62.25-.01 64.16.45 66.26.45 68.35.45 70.25-.01 71.94-.93s3.02-2.2 4-3.85C76.93-6.43 77.41-8.33 77.41-10.47 77.41-12.61 76.93-14.51 75.94-16.17 74.96-17.83 73.63-19.12 71.94-20.04 70.25-20.96 68.35-21.42 66.26-21.42 64.16-21.42 62.25-20.96 60.54-20.04 58.83-19.12 57.48-17.83 56.51-16.17 55.52-14.51 55.04-12.61 55.04-10.47 55.04-8.33 55.52-6.44 56.51-4.78 57.49-3.13 58.83-1.85 60.54-.93zM69.54-4.57C68.55-4.03 67.46-3.75 66.26-3.75 65.04-3.75 63.93-4.02 62.93-4.57c-1.01-.55-1.8-1.33-2.38-2.34C59.98-7.92 59.68-9.11 59.68-10.47 59.68-11.81 59.98-12.98 60.55-13.99 61.13-15 61.92-15.78 62.91-16.33 63.9-16.88 65.01-17.16 66.26-17.16 67.47-17.16 68.58-16.88 69.57-16.33 70.56-15.79 71.34-15 71.91-13.99 72.48-12.99 72.77-11.81 72.77-10.47 72.77-9.11 72.47-7.92 71.9-6.91 71.32-5.9 70.53-5.12 69.54-4.57zM82.12-1.96C83.68-.35 85.99.45 89.06.45 92.11.45 94.41-.35 95.96-1.96 97.49-3.57 98.26-5.74 98.26-8.46V-20.97H93.71V-8.4C93.71-6.88 93.29-5.72 92.46-4.92 91.63-4.12 90.49-3.72 89.06-3.72 87.6-3.72 86.45-4.12 85.6-4.92 84.76-5.72 84.35-6.88 84.35-8.4V-20.97H79.79V-8.46C79.79-5.74 80.57-3.58 82.12-1.96zm19.14-19.01V0H105.82V-7.11H109.4L113.09.0h4.67l-3.98-7.68C115.1-8.18 116.12-8.97 116.84-10.06 117.56-11.16 117.92-12.48 117.92-14.04c0-2.24-.670000000000002-3.95-2-5.14C114.59-20.38 112.74-20.97 110.35-20.97zm8.28 10.05H105.82v-6.24H109.54c1.19.0 2.11.23 2.77.710000000000001C112.96-15.98 113.29-15.18 113.29-14.04c0 1.08-.330000000000013 1.87-1 2.37-.670000000000002.5-1.59.75-2.75.75zM133.45.09C134.71.33 135.98.45 137.26.45 139.98.45 142.03-.08 143.4-1.14 144.77-2.2 145.45-3.68 145.45-5.58 145.45-6.68 145.27-7.6 144.89-8.35 144.51-9.1 143.91-9.75 143.11-10.3 142.32-10.86 141.21-11.43 139.79-12.03 138.57-12.53 137.68-12.91 137.14-13.17 136.6-13.43 136.18-13.73 135.89-14.07 135.58-14.41 135.43-14.84 135.43-15.36 135.43-16.08 135.76-16.63 136.39-17.02 137.03-17.41 137.91-17.61 139.04-17.61 140.79-17.61 142.55-17.17 144.31-16.29v-3.9C143.4-20.61 142.45-20.92 141.49-21.12 140.54-21.32 139.44-21.42 138.2-21.42 136.68-21.42 135.34-21.17 134.17-20.67 133.02-20.17 132.12-19.46 131.48-18.55 130.84-17.65 130.52-16.6 130.51-15.42 130.51-13.96 130.95-12.73 131.83-11.74 132.72-10.75 134.13-9.86 136.09-9.06 137.28-8.58 138.15-8.19 138.72-7.9 139.29-7.61 139.73-7.29 140.02-6.93 140.32-6.57 140.48-6.13 140.48-5.61 140.48-4.89 140.17-4.33 139.57-3.93 138.98-3.53 138.09-3.33 136.93-3.33 135.89-3.33 134.8-3.46 133.67-3.72 132.52-3.98 131.42-4.37 130.36-4.89V-.87C131.16-.47 132.2-.15 133.45.09zM150.2-1.96C151.76-.35 154.07.45 157.12.45 160.18.45 162.48-.35 164.02-1.96 165.56-3.57 166.33-5.74 166.33-8.46V-20.97h-4.56V-8.4C161.77-6.88 161.36-5.72 160.53-4.92S158.57-3.72 157.12-3.72C155.67-3.72 154.51-4.12 153.67-4.92 152.83-5.72 152.42-6.88 152.42-8.4V-20.97H147.85V-8.46C147.85-5.74 148.64-3.58 150.2-1.96zM174.14-.88C175.86.01 177.84.45 180.08.45 183.23.45 185.73-.23 187.58-1.59V-5.91C186.59-5.13 185.54-4.57 184.4-4.21 183.26-3.87 181.95-3.69 180.46-3.69c-2.16.0-3.88-.6-5.16-1.81S173.39-8.37 173.39-10.47C173.39-12.55 174.02-14.19 175.29-15.4 176.56-16.61 178.29-17.22 180.46-17.22 181.9-17.22 183.19-17.05 184.32-16.72 185.45-16.39 186.46-15.86 187.33-15.12v-4.32C185.39-20.76 182.97-21.42 180.08-21.42 177.84-21.42 175.86-20.98 174.14-20.08 172.42-19.19 171.09-17.92 170.15-16.27 169.21-14.62 168.74-12.69 168.74-10.47 168.74-8.25 169.2-6.32 170.15-4.68 171.09-3.04 172.42-1.77 174.14-.88zm20.04.0C195.9.01 197.88.45 200.11.45c3.16.0 5.66-.68 7.5-2.04V-5.91C206.63-5.13 205.58-4.57 204.43-4.21 203.3-3.87 201.99-3.69 200.5-3.69c-2.16.0-3.88-.6-5.16-1.81s-1.91-2.87-1.91-4.97C193.43-12.55 194.06-14.19 195.33-15.4 196.6-16.61 198.33-17.22 200.5-17.22 201.95-17.22 203.23-17.05 204.36-16.72 205.49-16.39 206.5-15.86 207.37-15.12v-4.32C205.43-20.76 203.01-21.42 200.11-21.42 197.88-21.42 195.9-20.98 194.18-20.08 192.46-19.19 191.13-17.92 190.18-16.27 189.25-14.62 188.77-12.69 188.77-10.47 188.77-8.25 189.24-6.32 190.18-4.68 191.13-3.04 192.46-1.77 194.18-.88zm15.99-20.09V0h14.54V-3.81H214.73V-8.64H222.08V-12.3H214.73v-4.86H224.71v-3.81zM229.43.09C230.69.33 231.95.45 233.24.45 235.95.45 238-.08 239.37-1.14c1.37-1.06 2.06-2.54 2.06-4.44C241.43-6.68 241.24-7.6 240.86-8.35 240.48-9.1 239.88-9.75 239.09-10.3 238.29-10.86 237.18-11.43 235.76-12.03 234.54-12.53 233.66-12.91 233.12-13.17S232.16-13.73 231.86-14.07C231.56-14.41 231.41-14.84 231.41-15.36 231.41-16.08 231.73-16.63 232.37-17.02 233-17.41 233.88-17.61 235.01-17.61 236.76-17.61 238.52-17.17 240.29-16.29v-3.9C239.37-20.61 238.43-20.92 237.47-21.12S235.41-21.42 234.17-21.42C232.65-21.42 231.31-21.17 230.15-20.67S228.09-19.46 227.45-18.55C226.81-17.65 226.49-16.6 226.49-15.42 226.49-13.96 226.92-12.73 227.81-11.74 228.69-10.75 230.1-9.86 232.07-9.06 233.25-8.58 234.12-8.19 234.69-7.9 235.26-7.61 235.7-7.29 236-6.93 236.3-6.57 236.45-6.13 236.45-5.61 236.45-4.89 236.15-4.33 235.55-3.93 234.95-3.53 234.06-3.33 232.91-3.33 231.86-3.33 230.78-3.46 229.64-3.72 228.5-3.98 227.39-4.37 226.34-4.89V-.87C227.13-.47 228.17-.15 229.43.09zm15.99.0C246.68.33 247.94.45 249.23.45 251.94.45 253.99-.08 255.36-1.14 256.73-2.2 257.41-3.68 257.41-5.58 257.41-6.68 257.23-7.6 256.84-8.35 256.47-9.1 255.87-9.75 255.08-10.3 254.28-10.86 253.17-11.43 251.75-12.03 250.53-12.53 249.65-12.91 249.11-13.17 248.57-13.43 248.15-13.73 247.85-14.07 247.55-14.41 247.4-14.84 247.4-15.36 247.4-16.08 247.72-16.63 248.36-17.02 248.99-17.41 249.87-17.61 251-17.61 252.75-17.61 254.51-17.17 256.27-16.29v-3.9C255.36-20.61 254.42-20.92 253.46-21.12 252.5-21.32 251.4-21.42 250.16-21.42 248.64-21.42 247.3-21.17 246.14-20.67 244.98-20.17 244.08-19.46 243.44-18.55 242.8-17.65 242.48-16.6 242.48-15.42 242.48-13.96 242.91-12.73 243.8-11.74 244.68-10.75 246.09-9.86 248.05-9.06 249.24-8.58 250.11-8.19 250.68-7.9 251.25-7.61 251.69-7.29 251.99-6.93 252.29-6.57 252.44-6.13 252.44-5.61 252.44-4.89 252.14-4.33 251.54-3.93 250.94-3.53 250.05-3.33 248.9-3.33 247.85-3.33 246.77-3.46 245.63-3.72 244.49-3.98 243.38-4.37 242.33-4.89V-.87C243.12-.47 244.16-.15 245.42.09z"/></g></g></g></svg>